<?xml version="1.0" encoding="UTF-8"?>
<svg id="Capa_1" data-name="Capa 1" xmlns="http://www.w3.org/2000/svg" viewBox="0 0 510.99 511.04">
  <defs>
    <style>
      .cls-1 {
        fill: #442f12;
      }

      .cls-2 {
        fill: #f8e8c4;
      }
    </style>
  </defs>
  <path class="cls-2" d="M191.61,223.56l2,255.5H44.4c-3.96,0-12.48-8.47-12.48-12.48v-36.43h28.44c.29,0,4.25-2.44,4.99-3,4.87-3.65,6.1-7.57,6.53-13.43,3.04-40.89-2.36-85.51-.04-126.8.94-4.59-7.88-14.47-11.48-14.47h-28.44v-36.43c0-4,8.51-12.48,12.48-12.48h147.21Z"/>
  <path class="cls-1" d="M123.74,87.83c-34.52,3.61-64.54,30.23-70.59,64.64-1.95,11.09,1.36,28.45-13.98,30.93-31.44,5.08-16.33-46.48-9.71-61.6,15.75-36.01,51.09-61.9,90.29-65.91-4.87-5.89-14.08-9.49-15.74-17.68-2.77-13.66,12.13-24.44,24.04-17.06,12.55,11.32,27.47,21.65,39.62,33.24,8.44,8.05,13.33,15.13,5.39,26.38-7.03,9.96-21.27,25.82-29.84,35.03-6.21,6.66-11.12,12.19-21.19,9.19-7.31-2.18-11.98-10.11-11.19-17.57.71-6.72,7.54-11.56,11.42-16.57.78-1,1.93-1.28,1.48-3Z"/>
  <g>
    <path class="cls-1" d="M470.07,0c3.97,1.9,8.22,2.41,12.33,4.14,15.16,6.37,24.15,20.45,28.59,35.79v432.16c-6.33,21.04-21.7,37-44.43,38.91l-421.2.05C21.06,509.13,2.26,490.86,0,466.57v-230.52c-.12-19.85,22.71-44.43,42.4-44.43h149.21V42.42c0-12.32,12.42-28.92,22.63-35.25,5.33-3.31,11.02-4.22,16.29-7.16h239.53ZM272.45,31.94h-36.43c-5.16,0-13.49,9.77-12.52,15.43v416.27c.26,8.43,7.03,15.21,15.47,15.47,76.28-.54,152.73.89,228.91-.72,6.44-2.01,11.05-7.93,11.2-14.75-.55-140.15.89-280.5-.72-420.53-.49-4.1-8.12-11.16-11.79-11.16h-36.43v28.44c0,3.6-9.88,12.42-14.47,11.48-41.28-2.33-85.91,3.08-126.8.04-5.86-.44-9.78-1.67-13.43-6.53-.56-.74-3-4.7-3-4.99v-28.44ZM191.61,223.56H44.4c-3.96,0-12.48,8.47-12.48,12.48v36.43h28.44c3.6,0,12.42,9.88,11.48,14.47-2.33,41.28,3.08,85.91.04,126.8-.44,5.86-1.67,9.78-6.53,13.43-.74.56-4.7,3-4.99,3h-28.44v36.43c0,4,8.51,12.48,12.48,12.48h149.21l-2-255.5Z"/>
    <path class="cls-2" d="M272.45,31.94v28.44c0,.29,2.44,4.25,3,4.99,3.65,4.87,7.57,6.1,13.43,6.53,40.89,3.04,85.51-2.36,126.8-.04,4.59.94,14.47-7.88,14.47-11.48v-28.44h36.43c3.68,0,11.31,7.06,11.79,11.16,1.62,140.04.18,280.38.72,420.53-.16,6.81-4.77,12.74-11.2,14.75-76.18,1.61-152.63.18-228.91.72-8.44-.26-15.21-7.04-15.47-15.47V47.37c-.97-5.66,7.36-15.43,12.52-15.43h36.43Z"/>
  </g>
</svg>