<?xml version="1.0" encoding="UTF-8"?>
<svg id="Capa_1" data-name="Capa 1" xmlns="http://www.w3.org/2000/svg" viewBox="0 0 425.97 641.29">
  <defs>
    <style>
      .cls-1 {
        fill: #000002;
      }
    </style>
  </defs>
  <path class="cls-1" d="M213,0C95.55,0,0,95.55,0,213c0,48.12,15.76,93.57,45.59,131.4,5.72,7.25,11.87,14.4,17.82,21.3,17.77,20.62,34.55,40.09,40.52,62,.13.47,1.25,5.07,1.09,20.73l-.03,2.26c-.18,12.71-.42,30.11,12.45,43.17,8.81,8.94,21.16,13.29,37.77,13.29h115.19c17.93,0,30.82-4.39,39.4-13.41,11.62-12.21,10.84-27.97,10.32-38.41-.09-1.84-.19-3.71-.21-5.56-.19-15.67.99-20.09,1.04-20.28,6.07-21.9,25.72-45,43.07-65.37,5.79-6.8,11.25-13.22,16.34-19.68,29.84-37.84,45.61-83.29,45.61-131.44,0-117.45-95.53-213-212.97-213ZM346.67,317.87c-4.6,5.82-9.81,11.95-15.33,18.44-20.22,23.76-43.15,50.69-51.74,81.73-1.23,4.42-2.83,12.57-2.59,32.25.03,2.39.14,4.79.26,7.17.09,1.88.21,4.36.2,6.32-1.51.25-3.79.47-7.08.47h-115.19c-3.65,0-5.78-.39-6.88-.68-.57-2.79-.49-8.6-.43-12.26l.03-2.41c.21-19.79-1.38-28-2.59-32.46-8.52-31.28-30.25-56.49-49.41-78.73-5.91-6.86-11.5-13.34-16.63-19.86-23.8-30.2-36.38-66.45-36.38-104.84,0-93.79,76.3-170.09,170.09-170.09s170.06,76.3,170.06,170.09c0,38.41-12.59,74.68-36.4,104.87Z"/>
  <path class="cls-1" d="M265.96,526.54h-105.95c-22.87,0-41.48,18.61-41.48,41.48v31.8c0,22.87,18.61,41.48,41.48,41.48h105.95c22.87,0,41.48-18.61,41.48-41.48v-31.8c0-22.87-18.61-41.48-41.48-41.48ZM264.53,598.38h-103.09v-28.94h103.09v28.94Z"/>
</svg>