<?xml version="1.0" encoding="UTF-8"?>
<svg id="Layer_1" data-name="Layer 1" xmlns="http://www.w3.org/2000/svg" viewBox="0 0 174 245">
  <g id="Qk05uN.tif">
    <g>
      <path d="M94.46.3c66.07,6.38,103.03,79.47,61.6,133.75-5.47,7.17-26.27,25.63-27.57,32.1-.51,2.52.04,5.06-.38,7.58l-1.34,1.64H45.74c-.19-2.73.35-5.71-.06-8.39-.97-6.26-20.5-23.32-25.76-29.93C-23.15,82.86,10.23,6.88,78.55.3c4.18-.4,11.73-.4,15.91,0ZM110.21,153.33c8.36-14.94,23.91-24.19,32.77-39.33,17.08-29.2,5.61-69.19-24.97-84.04-44.97-21.84-99.41,7.69-95.01,60.24,2.47,29.52,26.2,40.83,40.84,63.09l46.38.05Z"/>
      <path d="M42.75,186.31h87c2.45,3.17,1.74,10.16,1.36,14.3-3.11,34.4-39.77,56.38-69.39,34.86-8.18-5.95-18.97-21.45-18.97-31.75v-17.41ZM105.39,209.19h-37.78c7.55,15.79,31.11,16.66,37.78,0Z"/>
    </g>
  </g>
</svg>